HIERARCHY
ROOT mixamorig:Hips
{
	OFFSET 0.000000 201.639420 0.000000
	CHANNELS 6 Xposition Yposition Zposition Xrotation Yrotation Zrotation
	JOINT mixamorig:Spine
	{
		OFFSET 0.006200 19.524994 -2.481800
		CHANNELS 3 Xrotation Yrotation Zrotation
		JOINT mixamorig:Spine1
		{
			OFFSET -0.000900 22.835007 -2.825400
			CHANNELS 3 Xrotation Yrotation Zrotation
			JOINT mixamorig:Spine2
			{
				OFFSET -0.020600 26.552490 -3.193300
				CHANNELS 3 Xrotation Yrotation Zrotation
				JOINT mixamorig:Neck
				{
					OFFSET -0.060000 30.701813 1.352200
					CHANNELS 3 Xrotation Yrotation Zrotation
					JOINT mixamorig:Head
					{
						OFFSET -0.087200 22.547607 3.670900
						CHANNELS 3 Xrotation Yrotation Zrotation
						JOINT mixamorig:HeadTop_End
						{
							OFFSET -0.830600 40.355194 7.893500
							CHANNELS 3 Xrotation Yrotation Zrotation
							End Site
							{
								OFFSET 0.000000 30.592346 0.000000
							}
						}
						JOINT mixamorig:RightEye
						{
							OFFSET -6.302100 18.118591 16.197100
							CHANNELS 3 Xrotation Yrotation Zrotation
							End Site
							{
								OFFSET 0.000000 30.592346 0.000000
							}
						}
						JOINT mixamorig:LeftEye
						{
							OFFSET 6.741500 18.382690 16.401899
							CHANNELS 3 Xrotation Yrotation Zrotation
							End Site
							{
								OFFSET 0.000000 30.592346 0.000000
							}
						}
					}
				}
				JOINT mixamorig:LeftShoulder
				{
					OFFSET 11.924900 18.230499 1.425400
					CHANNELS 3 Xrotation Yrotation Zrotation
					JOINT mixamorig:LeftArm
					{
						OFFSET 25.435989 -0.697632 -5.229300
						CHANNELS 3 Xrotation Yrotation Zrotation
						JOINT mixamorig:LeftForeArm
						{
							OFFSET 54.684776 0.000000 0.000000
							CHANNELS 3 Xrotation Yrotation Zrotation
							JOINT mixamorig:LeftHand
							{
								OFFSET 55.098175 0.000000 0.000000
								CHANNELS 3 Xrotation Yrotation Zrotation
								JOINT mixamorig:LeftHandMiddle1
								{
									OFFSET 23.369751 0.000000 0.000000
									CHANNELS 3 Xrotation Yrotation Zrotation
									JOINT mixamorig:LeftHandMiddle2
									{
										OFFSET 6.378677 0.000000 0.000000
										CHANNELS 3 Xrotation Yrotation Zrotation
										JOINT mixamorig:LeftHandMiddle3
										{
											OFFSET 6.148331 0.000000 0.000000
											CHANNELS 3 Xrotation Yrotation Zrotation
											JOINT mixamorig:LeftHandMiddle4
											{
												OFFSET 6.582504 0.000000 0.000000
												CHANNELS 3 Xrotation Yrotation Zrotation
												End Site
												{
													OFFSET -1.168900 6.395691 1.028606
												}
											}
										}
									}
								}
								JOINT mixamorig:LeftHandThumb1
								{
									OFFSET 7.235672 -3.848206 5.434273
									CHANNELS 3 Xrotation Yrotation Zrotation
									JOINT mixamorig:LeftHandThumb2
									{
										OFFSET 6.568451 -3.792297 3.792300
										CHANNELS 3 Xrotation Yrotation Zrotation
										JOINT mixamorig:LeftHandThumb3
										{
											OFFSET 6.063080 -3.500519 3.500518
											CHANNELS 3 Xrotation Yrotation Zrotation
											JOINT mixamorig:LeftHandThumb4
											{
												OFFSET 4.793182 -2.767334 2.767349
												CHANNELS 3 Xrotation Yrotation Zrotation
												End Site
												{
													OFFSET 0.101639 6.054260 1.275483
												}
											}
										}
									}
								}
								JOINT mixamorig:LeftHandIndex1
								{
									OFFSET 23.101074 -0.309540 4.992809
									CHANNELS 3 Xrotation Yrotation Zrotation
									JOINT mixamorig:LeftHandIndex2
									{
										OFFSET 6.226883 0.000000 0.000000
										CHANNELS 3 Xrotation Yrotation Zrotation
										JOINT mixamorig:LeftHandIndex3
										{
											OFFSET 6.094330 0.000000 0.000000
											CHANNELS 3 Xrotation Yrotation Zrotation
											JOINT mixamorig:LeftHandIndex4
											{
												OFFSET 5.482605 0.000000 0.000000
												CHANNELS 3 Xrotation Yrotation Zrotation
												End Site
												{
													OFFSET -1.427902 5.233032 0.797164
												}
											}
										}
									}
								}
								JOINT mixamorig:LeftHandRing1
								{
									OFFSET 22.299240 0.021149 -3.964172
									CHANNELS 3 Xrotation Yrotation Zrotation
									JOINT mixamorig:LeftHandRing2
									{
										OFFSET 6.321869 0.000000 0.000000
										CHANNELS 3 Xrotation Yrotation Zrotation
										JOINT mixamorig:LeftHandRing3
										{
											OFFSET 5.899796 0.000000 0.000000
											CHANNELS 3 Xrotation Yrotation Zrotation
											JOINT mixamorig:LeftHandRing4
											{
												OFFSET 6.517899 0.000000 0.000000
												CHANNELS 3 Xrotation Yrotation Zrotation
												End Site
												{
													OFFSET -1.637299 6.232208 0.980890
												}
											}
										}
									}
								}
								JOINT mixamorig:LeftHandPinky1
								{
									OFFSET 20.463791 -0.302338 -8.562233
									CHANNELS 3 Xrotation Yrotation Zrotation
									JOINT mixamorig:LeftHandPinky2
									{
										OFFSET 6.908646 0.000000 0.000000
										CHANNELS 3 Xrotation Yrotation Zrotation
										JOINT mixamorig:LeftHandPinky3
										{
											OFFSET 4.622849 0.000000 0.000000
											CHANNELS 3 Xrotation Yrotation Zrotation
											JOINT mixamorig:LeftHandPinky4
											{
												OFFSET 5.216080 0.000000 0.000000
												CHANNELS 3 Xrotation Yrotation Zrotation
												End Site
												{
													OFFSET -0.606308 5.116241 0.814926
												}
											}
										}
									}
								}
							}
						}
					}
				}
				JOINT mixamorig:RightShoulder
				{
					OFFSET -12.001300 18.284088 1.348900
					CHANNELS 3 Xrotation Yrotation Zrotation
					JOINT mixamorig:RightArm
					{
						OFFSET -25.308500 -0.751312 -5.164599
						CHANNELS 3 Xrotation Yrotation Zrotation
						JOINT mixamorig:RightForeArm
						{
							OFFSET -54.684429 0.000000 0.000000
							CHANNELS 3 Xrotation Yrotation Zrotation
							JOINT mixamorig:RightHand
							{
								OFFSET -55.150291 0.000000 0.000000
								CHANNELS 3 Xrotation Yrotation Zrotation
								JOINT mixamorig:RightHandMiddle1
								{
									OFFSET -23.317566 0.000000 0.000000
									CHANNELS 3 Xrotation Yrotation Zrotation
									JOINT mixamorig:RightHandMiddle2
									{
										OFFSET -6.378403 0.000000 0.000000
										CHANNELS 3 Xrotation Yrotation Zrotation
										JOINT mixamorig:RightHandMiddle3
										{
											OFFSET -6.148193 0.000000 0.000000
											CHANNELS 3 Xrotation Yrotation Zrotation
											JOINT mixamorig:RightHandMiddle4
											{
												OFFSET -6.583389 0.000000 0.000000
												CHANNELS 3 Xrotation Yrotation Zrotation
												End Site
												{
													OFFSET 1.171692 6.395905 1.029786
												}
											}
										}
									}
								}
								JOINT mixamorig:RightHandThumb1
								{
									OFFSET -7.190521 -3.860474 5.435846
									CHANNELS 3 Xrotation Yrotation Zrotation
									JOINT mixamorig:RightHandThumb2
									{
										OFFSET -6.567429 -3.791718 3.791708
										CHANNELS 3 Xrotation Yrotation Zrotation
										JOINT mixamorig:RightHandThumb3
										{
											OFFSET -6.062469 -3.500153 3.500166
											CHANNELS 3 Xrotation Yrotation Zrotation
											JOINT mixamorig:RightHandThumb4
											{
												OFFSET -4.792618 -2.767029 2.767022
												CHANNELS 3 Xrotation Yrotation Zrotation
												End Site
												{
													OFFSET -0.100327 6.053253 1.276754
												}
											}
										}
									}
								}
								JOINT mixamorig:RightHandIndex1
								{
									OFFSET -23.048981 -0.310791 4.992554
									CHANNELS 3 Xrotation Yrotation Zrotation
									JOINT mixamorig:RightHandIndex2
									{
										OFFSET -6.227539 0.000000 0.000000
										CHANNELS 3 Xrotation Yrotation Zrotation
										JOINT mixamorig:RightHandIndex3
										{
											OFFSET -6.095047 0.000000 0.000000
											CHANNELS 3 Xrotation Yrotation Zrotation
											JOINT mixamorig:RightHandIndex4
											{
												OFFSET -5.484772 0.000000 0.000000
												CHANNELS 3 Xrotation Yrotation Zrotation
												End Site
												{
													OFFSET 1.420593 5.237305 0.797056
												}
											}
										}
									}
								}
								JOINT mixamorig:RightHandRing1
								{
									OFFSET -22.246323 0.020569 -3.963762
									CHANNELS 3 Xrotation Yrotation Zrotation
									JOINT mixamorig:RightHandRing2
									{
										OFFSET -6.322128 0.000000 0.000000
										CHANNELS 3 Xrotation Yrotation Zrotation
										JOINT mixamorig:RightHandRing3
										{
											OFFSET -5.900024 0.000000 0.000000
											CHANNELS 3 Xrotation Yrotation Zrotation
											JOINT mixamorig:RightHandRing4
											{
												OFFSET -6.518356 0.000000 0.000000
												CHANNELS 3 Xrotation Yrotation Zrotation
												End Site
												{
													OFFSET 1.636398 6.232697 0.982186
												}
											}
										}
									}
								}
								JOINT mixamorig:RightHandPinky1
								{
									OFFSET -20.411011 -0.303314 -8.561701
									CHANNELS 3 Xrotation Yrotation Zrotation
									JOINT mixamorig:RightHandPinky2
									{
										OFFSET -6.907349 0.000000 0.000000
										CHANNELS 3 Xrotation Yrotation Zrotation
										JOINT mixamorig:RightHandPinky3
										{
											OFFSET -4.623840 0.000000 0.000000
											CHANNELS 3 Xrotation Yrotation Zrotation
											JOINT mixamorig:RightHandPinky4
											{
												OFFSET -5.218353 0.000000 0.000000
												CHANNELS 3 Xrotation Yrotation Zrotation
												End Site
												{
													OFFSET 0.602097 5.118835 0.816273
												}
											}
										}
									}
								}
							}
						}
					}
				}
			}
		}
	}
	JOINT mixamorig:LeftUpLeg
	{
		OFFSET 18.168400 -13.561905 -0.039000
		CHANNELS 3 Xrotation Yrotation Zrotation
		JOINT mixamorig:LeftLeg
		{
			OFFSET 0.577358 -80.825211 -3.695000
			CHANNELS 3 Xrotation Yrotation Zrotation
			JOINT mixamorig:LeftFoot
			{
				OFFSET -0.577356 -83.370262 -6.520700
				CHANNELS 3 Xrotation Yrotation Zrotation
				JOINT mixamorig:LeftToeBase
				{
					OFFSET 0.750401 -20.798306 25.135401
					CHANNELS 3 Xrotation Yrotation Zrotation
					JOINT mixamorig:LeftToe_End
					{
						OFFSET -0.000500 0.001200 19.917799
						CHANNELS 3 Xrotation Yrotation Zrotation
						End Site
						{
							OFFSET 0.000000 19.917805 0.000000
						}
					}
				}
			}
		}
	}
	JOINT mixamorig:RightUpLeg
	{
		OFFSET -18.162500 -13.585098 -0.041000
		CHANNELS 3 Xrotation Yrotation Zrotation
		JOINT mixamorig:RightLeg
		{
			OFFSET -0.595024 -80.945297 -3.631900
			CHANNELS 3 Xrotation Yrotation Zrotation
			JOINT mixamorig:RightFoot
			{
				OFFSET 0.595024 -83.218193 -6.561200
				CHANNELS 3 Xrotation Yrotation Zrotation
				JOINT mixamorig:RightToeBase
				{
					OFFSET -0.753601 -20.807106 25.115000
					CHANNELS 3 Xrotation Yrotation Zrotation
					JOINT mixamorig:RightToe_End
					{
						OFFSET 0.000299 0.001700 19.918200
						CHANNELS 3 Xrotation Yrotation Zrotation
						End Site
						{
							OFFSET 0.000000 19.918203 0.000000
						}
					}
				}
			}
		}
	}
}
MOTION
Frames: 4
Frame Time: 0.033333
0.050259 322.015869 1.165346 -5.803378 1.601605 0.282243 1.823298 -0.509996 0.464510 3.656340 -0.922092 -0.105144 3.658143 -0.914916 -0.105186 0.160783 1.219038 -1.743569 -5.402444 3.325876 2.246670 -0.000000 0.000000 -0.000000 -0.000000 0.000000 -0.000000 -0.000000 0.000000 -0.000000 0.702535 3.302733 -11.881228 -12.537442 4.871609 -73.117715 -0.000004 -11.625016 -0.000003 9.051940 6.965011 -10.566520 0.151432 1.438976 -12.014212 0.051603 0.843125 -7.004379 0.012854 0.421388 -3.494007 -0.000000 -0.000001 0.000002 1.044228 20.691249 10.885316 -2.615107 5.271270 6.610196 -3.978616 0.427090 5.023777 0.000001 -0.000001 0.000002 0.151834 1.440864 -12.030199 0.051365 0.841214 -6.988402 0.012854 0.421387 -3.494011 0.000000 0.000000 0.000002 0.151833 1.440869 -12.030204 0.051368 0.841213 -6.988401 0.012853 0.421389 -3.494009 -0.000001 -0.000000 -0.000000 0.982227 5.409552 -11.569429 0.040867 -3.213535 -7.495337 0.012852 0.421390 -3.494010 0.000000 -0.000001 -0.000002 2.093172 9.702762 10.885195 0.516813 1.005306 69.986975 -0.000005 22.806639 0.000021 -8.421337 -0.619695 4.918080 0.102824 -1.193776 9.845489 0.148035 -1.429976 11.819953 0.037102 -0.718806 5.909060 0.000002 0.000001 -0.000001 3.856683 -21.048041 -12.340609 6.693729 -11.742787 -1.251872 -0.241514 -1.392392 -2.796963 0.000001 0.000002 -0.000000 0.102824 -1.193775 9.845490 0.148037 -1.429972 11.819951 0.037102 -0.718808 5.909065 0.000002 0.000001 0.000001 0.102825 -1.193778 9.845483 0.148034 -1.429970 11.819966 0.037100 -0.718808 5.909049 0.000001 0.000000 0.000000 0.102825 -1.193777 9.845492 0.148037 -1.429974 11.819953 0.037096 -0.718807 5.909067 -0.000001 0.000001 0.000001 -0.332559 5.795893 1.543313 6.173254 9.976485 0.652790 0.146437 3.997565 1.731215 -0.001142 0.000004 0.000000 -0.000000 -0.000001 -0.000000 -2.466405 -14.875087 -3.910272 10.574627 -5.050687 -0.259233 -2.766723 -0.144816 2.875029 0.000005 0.000000 0.000001 0.000000 0.000000 -0.000000 
0.038756 322.045074 1.198280 -5.764246 1.569253 0.341589 1.812832 -0.495003 0.414408 3.636763 -0.902954 -0.116603 3.638363 -0.896602 -0.116628 0.166310 1.201956 -1.706370 -5.315789 3.304027 2.224849 -0.000000 0.000000 0.000000 -0.000000 0.000000 0.000000 -0.000000 0.000000 0.000000 0.710277 3.320543 -11.885261 -12.488629 4.871861 -73.071064 -0.000006 -11.565514 -0.000016 9.006919 7.056564 -10.579580 0.151433 1.438977 -12.014214 0.051602 0.843127 -7.004382 0.012854 0.421388 -3.494010 -0.000000 -0.000000 0.000000 1.044228 20.691249 10.885315 -2.615107 5.271271 6.610194 -3.978617 0.427089 5.023774 0.000000 -0.000002 -0.000000 0.151834 1.440861 -12.030194 0.051365 0.841213 -6.988404 0.012856 0.421387 -3.494014 -0.000000 -0.000001 -0.000001 0.151831 1.440868 -12.030200 0.051369 0.841216 -6.988402 0.012852 0.421386 -3.494004 0.000000 0.000000 -0.000001 0.982229 5.409553 -11.569432 0.040868 -3.213533 -7.495337 0.012854 0.421390 -3.494014 0.000001 -0.000001 -0.000001 2.085150 9.658359 10.899213 0.621594 0.965837 69.989932 0.000001 22.826740 -0.000017 -8.074283 -0.654080 4.894340 0.102823 -1.193777 9.845488 0.148036 -1.429975 11.819956 0.037100 -0.718808 5.909064 0.000003 -0.000001 -0.000002 3.856683 -21.048042 -12.340611 6.693725 -11.742785 -1.251876 -0.241512 -1.392393 -2.796964 0.000001 0.000002 -0.000001 0.102824 -1.193780 9.845489 0.148037 -1.429971 11.819951 0.037103 -0.718805 5.909064 -0.000001 0.000001 -0.000000 0.102824 -1.193782 9.845483 0.148034 -1.429970 11.819964 0.037099 -0.718807 5.909046 -0.000000 0.000000 0.000001 0.102823 -1.193778 9.845490 0.148037 -1.429971 11.819953 0.037097 -0.718806 5.909065 -0.000002 -0.000001 -0.000001 -0.660260 5.844501 1.455308 6.701163 9.974656 0.658096 0.337303 4.326755 1.800419 0.052134 0.000004 0.000000 -0.000000 -0.000001 0.000000 -2.480679 -14.829227 -3.970681 10.496512 -5.035394 -0.259687 -2.694500 -0.149417 2.939977 -0.008037 -0.000006 -0.000001 0.000000 0.000001 -0.000000 
0.024786 322.046021 1.238058 -5.735084 1.551180 0.367079 1.805947 -0.486908 0.382746 3.623838 -0.893611 -0.116082 3.625310 -0.887775 -0.116095 0.167817 1.190332 -1.695242 -5.289425 3.268310 2.180930 -0.000000 0.000000 -0.000000 -0.000000 0.000000 -0.000000 -0.000000 0.000000 -0.000000 0.719062 3.296691 -11.884227 -12.459596 4.911282 -73.030575 -0.000001 -11.545441 0.000009 9.100787 7.119372 -10.290286 0.151433 1.438976 -12.014214 0.051602 0.843125 -7.004380 0.012854 0.421390 -3.494011 -0.000000 0.000000 0.000002 1.044227 20.691249 10.885317 -2.615108 5.271268 6.610197 -3.978616 0.427090 5.023777 0.000001 -0.000002 -0.000001 0.151836 1.440862 -12.030196 0.051362 0.841214 -6.988402 0.012855 0.421387 -3.494013 -0.000000 -0.000000 -0.000001 0.151833 1.440868 -12.030203 0.051366 0.841215 -6.988403 0.012851 0.421388 -3.494011 -0.000000 0.000000 -0.000003 0.982229 5.409552 -11.569432 0.040868 -3.213533 -7.495338 0.012854 0.421391 -3.494008 0.000000 0.000000 -0.000000 2.075041 9.674123 10.896057 0.670861 0.908466 70.034198 -0.000007 22.784893 -0.000005 -7.932669 -0.651502 5.306526 0.102824 -1.193778 9.845488 0.148037 -1.429974 11.819952 0.037101 -0.718805 5.909060 0.000003 -0.000000 -0.000003 3.856683 -21.048046 -12.340608 6.693727 -11.742786 -1.251873 -0.241510 -1.392395 -2.796965 -0.000001 0.000001 -0.000000 0.102823 -1.193780 9.845487 0.148037 -1.429969 11.819951 0.037103 -0.718806 5.909066 0.000001 0.000000 0.000002 0.102823 -1.193782 9.845483 0.148033 -1.429973 11.819966 0.037102 -0.718806 5.909048 -0.000001 -0.000001 -0.000001 0.102824 -1.193777 9.845489 0.148038 -1.429972 11.819953 0.037100 -0.718806 5.909069 0.000001 0.000000 -0.000000 -0.837003 5.900712 1.407897 7.004859 9.334543 0.632940 0.385651 5.131328 1.869659 0.190290 -0.000005 0.000001 -0.000000 0.000000 -0.000000 -2.494793 -14.816613 -3.998675 10.464447 -5.028887 -0.261026 -2.677567 -0.136089 3.008352 -0.020027 0.000005 0.000000 -0.000000 -0.000001 -0.000000 
0.017464 322.055145 1.277760 -5.692350 1.538177 0.367314 1.801414 -0.484709 0.363960 3.615155 -0.893154 -0.107997 3.616556 -0.887621 -0.108002 0.167781 1.182769 -1.701154 -5.303732 3.224083 2.125305 0.000000 -0.000000 0.000000 0.000000 -0.000000 0.000000 0.000000 -0.000000 0.000000 0.722458 3.302936 -11.884478 -12.427459 4.949503 -73.010986 0.000004 -11.588621 0.000009 9.244367 7.192948 -10.373310 0.151431 1.438975 -12.014213 0.051602 0.843126 -7.004384 0.012854 0.421389 -3.494008 0.000001 -0.000001 0.000002 1.044227 20.691250 10.885316 -2.615110 5.271269 6.610194 -3.978618 0.427091 5.023772 0.000002 -0.000000 0.000002 0.151833 1.440860 -12.030196 0.051365 0.841214 -6.988408 0.012855 0.421386 -3.494012 0.000000 0.000000 -0.000003 0.151830 1.440867 -12.030203 0.051367 0.841214 -6.988402 0.012853 0.421386 -3.494008 -0.000000 0.000000 0.000003 0.982227 5.409551 -11.569431 0.040867 -3.213534 -7.495334 0.012852 0.421391 -3.494013 0.000001 0.000001 0.000002 2.066455 9.686797 10.887650 0.652837 0.906381 70.101619 -0.000011 22.663597 0.000013 -7.783734 -0.634903 5.434238 0.102822 -1.193776 9.845485 0.148036 -1.429973 11.819953 0.037099 -0.718806 5.909063 0.000001 0.000001 -0.000000 3.856683 -21.048041 -12.340610 6.693727 -11.742789 -1.251875 -0.241512 -1.392393 -2.796963 0.000002 0.000001 -0.000001 0.102823 -1.193780 9.845487 0.148037 -1.429967 11.819949 0.037103 -0.718805 5.909069 0.000002 -0.000001 0.000000 0.102824 -1.193780 9.845482 0.148033 -1.429967 11.819964 0.037100 -0.718805 5.909052 0.000000 -0.000001 -0.000001 0.102824 -1.193776 9.845487 0.148038 -1.429973 11.819955 0.037097 -0.718805 5.909066 0.000001 0.000002 -0.000001 -1.064650 5.965406 1.425419 7.347835 9.971342 0.654226 0.457692 4.536509 1.831957 0.168111 0.000012 -0.000001 -0.000000 -0.000000 -0.000000 -2.505209 -14.815261 -3.991005 10.406598 -4.973131 -0.261241 -2.637098 -0.166022 3.013548 -0.023335 0.000000 0.000001 -0.000000 0.000000 -0.000000 
